<svg xmlns="http://www.w3.org/2000/svg" viewBox="0 0 80 53.5"><path d="M40.1 32.085h.018c.603 0 1.199-.175 1.681-.494l.131-.084c.029-.018.058-.035.088-.055l1.524-1.26L79.916.174a.427.427 0 0 0-.34-.175H.423A.411.411 0 0 0 .16.095l38.055 31.367c.48.397 1.164.623 1.884.623zM0 4.253v44.493l27.261-22.022zm52.767 22.62L80 48.757V4.401zm-8.658 7.143c-1.086.89-2.506 1.382-3.997 1.382-1.497 0-2.916-.488-3.999-1.375l-6.243-5.15L0 53v.077c0 .229.196.424.428.424h79.15a.43.43 0 0 0 .422-.426v-.07l-29.844-23.98z" fill="#fff"/></svg>